<?xml version="1.0" encoding="iso-8859-1"?>
<svg xmlns="http://www.w3.org/2000/svg" xmlns:xlink="http://www.w3.org/1999/xlink" preserveAspectRatio="xMidYMid meet" version="1.1" viewBox="0.0 -0.1 70.7 89.5" zoomAndPan="magnify" style="fill: rgb(0, 0, 0);" original_string_length="16913">
    <defs>
        <clipPath id="__id167_sifns3reqr">
            <path d="m16 12h54.66v71h-54.66z"/>
        </clipPath>
        <clipPath id="__id168_sifns3reqr">
            <path d="m16 76h25v13.422h-25z"/>
        </clipPath>
    </defs>
    <g id="__id169_sifns3reqr">
        <g clip-path="url(#__id167_sifns3reqr)" id="__id170_sifns3reqr">
            <path d="m70.613 82.383c-7.011-3.262-13.972-6.766-20.324-11.266-6.336-4.555-11.73-10.176-17.059-15.785-2.621-2.84-5.39-5.582-7.546-8.894-2.153-3.317-3.52-7.032-4.657-10.735-2.328-7.406-4.015-15.012-5.004-22.695l0.098-0.016c1.598 7.574 3.547 15.047 5.887 22.403 1.191 3.656 2.457 7.304 4.469 10.539 2.027 3.218 4.683 6.066 7.164 9.031 2.523 2.926 5.125 5.793 7.976 8.402 2.832 2.633 5.934 4.942 9.145 7.071 6.371 4.332 13.183 7.992 19.898 11.855l-0.047 0.09" style="fill: rgb(201, 144, 113);"/>
        </g>
        <g id="__id171_sifns3reqr"><path d="m20.012 18.805c-0.621 0.769-1.442 1.511-2.524 1.613-1.101 0.055-2.047-0.633-2.812-1.285-0.774-0.684-1.449-1.442-2.102-2.203-0.676-0.778-1.262-1.645-1.73-2.59-0.449-0.949-0.766-2.004-0.782-3.098-0.023-1.097 0.27-2.1404 0.61-3.1014 0.699-1.9101 1.578-3.7344 2.613-5.4687 0.254-0.4336 0.516-0.8672 0.785-1.2891l0.414-0.6328c0.145-0.20312 0.223-0.44141 0.504-0.64844 0.301-0.20312 0.684-0.074216 0.891 0.08985 0.226 0.16406 0.398 0.38281 0.539 0.58984 0.289 0.41015 0.594 0.80855 0.871 1.2304 1.145 1.6525 2.223 3.3712 3.066 5.2189 0.809 1.8437 1.481 3.8165 1.524 5.8945 0.031 1.027-0.102 2.066-0.41 3.039-0.324 0.965-0.813 1.867-1.457 2.641zm-0.078-0.063c0.625-0.769 1.086-1.68 1.281-2.644 0.183-0.969 0.191-1.957 0.039-2.918-0.305-1.922-0.988-3.7777-1.664-5.6331-0.692-1.8438-1.496-3.6797-2.57-5.3555-0.27-0.418-0.547-0.832-0.848-1.2266-0.258-0.37886-0.707-0.77339-0.988-0.57027-0.133 0.08985-0.254 0.33985-0.383 0.55078l-0.356 0.65239c-0.234 0.4414-0.461 0.8828-0.675 1.332-0.852 1.7969-1.586 3.6445-2.204 5.5117-0.3 0.9297-0.511 1.8596-0.464 2.7696 0.05 0.914 0.304 1.82 0.707 2.672 0.386 0.863 0.929 1.668 1.515 2.441 0.614 0.789 1.184 1.606 1.817 2.34 0.632 0.715 1.39 1.406 2.343 1.473 0.961 0.039 1.832-0.645 2.45-1.395" style="fill: rgb(201, 144, 113);"/></g>
        <g id="__id172_sifns3reqr"><path d="m15.66 27.023c-0.867-1.097-1.648-2.253-2.433-3.398-0.379-0.57-0.778-1.109-1.243-1.535-0.453-0.426-1.023-0.684-1.648-0.926-0.629-0.238-1.3087-0.461-1.9571-0.82-0.6445-0.36-1.2031-0.809-1.7383-1.254-1.0429-0.891-2.1953-1.793-3.5508-1.817l0.129-0.312 2.0078 1.68c0.6718 0.57 1.3203 1.234 1.789 2.039 0.4766 0.777 0.7891 1.601 1.2071 2.308 0.414 0.719 0.914 1.266 1.5976 1.637 0.6837 0.367 1.5037 0.625 2.3317 0.918l2.45 0.902c0.816 0.293 1.625 0.625 2.433 0.946 0.41 0.16 0.785 0.332 1.176 0.363 0.191 0.016 0.406-0.027 0.633-0.043 0.218-0.02 0.504 0.008 0.668 0.199l-0.067 0.074c-0.351-0.222-0.746 0.067-1.222 0.114-0.489 0.054-0.942-0.09-1.356-0.196-0.844-0.218-1.691-0.429-2.523-0.675l-2.508-0.723c-0.82-0.266-1.691-0.473-2.5352-0.945-0.8711-0.45-1.5352-1.289-1.9414-2.094-0.4219-0.817-0.7188-1.633-1.0899-2.371-0.7383-1.449-2.0703-2.641-3.2929-3.867l-0.3477-0.348 0.4766 0.035c1.5 0.106 2.6523 1.074 3.8086 1.805 0.582 0.375 1.1679 0.734 1.7734 0.98 0.6094 0.239 1.2734 0.391 1.9535 0.629 0.671 0.234 1.39 0.586 1.937 1.137 0.551 0.531 0.926 1.168 1.274 1.777 0.66 1.231 1.316 2.453 1.894 3.731l-0.086 0.05" style="fill: rgb(201, 144, 113);"/></g>
        <g id="__id173_sifns3reqr"><path d="m32.848 31.316c2.082-0.234 4.175-0.476 6.113-1.16 0.965-0.34 1.871-0.808 2.695-1.379 0.817-0.586 1.535-1.304 2.133-2.117 1.195-1.633 2.023-3.523 2.555-5.515 0.554-1.989 0.863-4.063 1.129-6.141l0.261 0.199c-3.558 1.328-6.871 3.293-9.836 5.645-0.742 0.582-1.453 1.207-2.168 1.828-0.707 0.629-1.406 1.258-1.964 1.965-0.571 0.703-0.95 1.476-1.012 2.332-0.086 0.859 0.121 1.765 0.199 2.769 0.039 0.5 0.035 1.031-0.07 1.563-0.113 0.531-0.278 0.98-0.461 1.445-0.371 0.918-0.809 1.781-1.231 2.621-0.418 0.848-0.804 1.688-1.05 2.555-0.246 0.883-0.453 1.808-0.598 2.73-0.563 3.696-0.324 7.543 0.863 11.164l-0.094 0.035c-1.574-3.492-2.109-7.468-1.648-11.32 0.113-0.969 0.277-1.914 0.508-2.875 0.258-0.972 0.66-1.875 1.07-2.746 0.406-0.871 0.848-1.707 1.188-2.559 0.172-0.417 0.324-0.867 0.418-1.269 0.09-0.402 0.105-0.832 0.082-1.281-0.043-0.895-0.25-1.879-0.133-2.926 0.098-1.059 0.625-2.059 1.281-2.805 0.66-0.765 1.41-1.383 2.149-1.992 0.746-0.609 1.519-1.18 2.304-1.73 3.149-2.204 6.543-3.997 10.059-5.508l0.289-0.121-0.027 0.32c-0.176 2.09-0.309 4.199-0.762 6.285-0.461 2.074-1.258 4.149-2.617 5.856-1.321 1.726-3.235 3.035-5.317 3.578-2.07 0.605-4.207 0.683-6.301 0.656l-0.007-0.102" style="fill: rgb(201, 144, 113);"/></g>
        <g id="__id174_sifns3reqr"><path d="m31.449 32.965c0.121-1.102-0.133-2.156-0.554-3.106-0.422-0.961-1.071-1.8-1.762-2.621-0.68-0.832-1.414-1.664-2.188-2.449-0.781-0.781-1.613-1.508-2.476-2.191l0.324-0.196c0.328 1.25 0.691 2.489 0.988 3.743 0.281 1.257 0.594 2.507 0.836 3.773 0.254 1.25 0.465 2.48 0.969 3.594 0.504 1.093 1.277 2.117 2.441 2.676l-0.027 0.093c-1.324-0.226-2.445-1.23-3.133-2.39-0.699-1.18-1.047-2.5-1.297-3.766-0.258-1.262-0.441-2.539-0.66-3.809-0.203-1.269-0.34-2.558-0.512-3.836l-0.082-0.601 0.411 0.406c0.789 0.785 1.609 1.527 2.484 2.211 0.891 0.672 1.793 1.332 2.582 2.16 0.773 0.828 1.43 1.821 1.801 2.934 0.367 1.101 0.41 2.351-0.047 3.398l-0.098-0.023" style="fill: rgb(201, 144, 113);"/></g>
        <g id="__id175_sifns3reqr"><path d="m28.691 40.82c1.2 0.516 2.473 0.305 3.739 0.145 1.269-0.168 2.511-0.438 3.758-0.719 1.246-0.269 2.507-0.59 3.691-1.105 1.183-0.524 2.273-1.239 3.269-2.055l0.114 0.488c-1.332-0.129-2.617-0.48-3.867-0.812-1.247-0.328-2.485-0.594-3.704-0.617-1.211-0.028-2.433 0.234-3.546 0.781-1.122 0.539-2.133 1.34-2.946 2.359l-0.086-0.051c0.543-1.214 1.492-2.254 2.649-2.988 1.156-0.723 2.535-1.172 3.933-1.168 1.399 0 2.715 0.383 3.965 0.781 1.254 0.395 2.449 0.868 3.692 1.18l0.648 0.16-0.535 0.328c-1.125 0.696-2.281 1.309-3.445 1.907-1.168 0.593-2.348 1.195-3.61 1.617-1.265 0.402-2.586 0.621-3.91 0.687-1.277 0.059-2.789 0.043-3.863-0.832l0.054-0.086" style="fill: rgb(201, 144, 113);"/></g>
        <g id="__id176_sifns3reqr"><path d="m42.438 22.293c-0.411 1.105-1.247 1.988-2.192 2.605-0.492 0.297-1.043 0.485-1.519 0.778-0.485 0.285-0.911 0.644-1.317 1.035-0.797 0.793-1.625 1.492-2.375 2.25-0.789 0.723-1.508 1.473-2.219 2.375l-0.093-0.039c0.121-1.172 0.769-2.246 1.558-3.09 0.824-0.82 1.781-1.473 2.817-1.945 0.507-0.25 1.007-0.508 1.445-0.856 0.441-0.34 0.801-0.789 1.199-1.168 0.824-0.73 1.672-1.34 2.617-2.008l0.079 0.063" style="fill: rgb(201, 144, 113);"/></g>
        <g id="__id177_sifns3reqr"><path d="m27.504 28.438c0.473 0.449 0.742 0.878 0.91 1.382 0.063 0.262 0.059 0.578 0.184 0.825 0.117 0.25 0.336 0.429 0.574 0.589 0.496 0.301 0.918 0.684 1.262 1.192 0.296 0.515 0.48 1.246 0.168 1.844l-0.098 0.003c-0.348-0.527-0.645-0.851-0.961-1.257-0.273-0.422-0.598-0.871-0.797-1.438-0.113-0.277-0.23-0.539-0.418-0.758-0.183-0.218-0.469-0.386-0.656-0.621-0.336-0.488-0.461-1.109-0.266-1.738l0.098-0.023" style="fill: rgb(201, 144, 113);"/></g>
        <g id="__id178_sifns3reqr"><path d="m38.07 38.07c-0.754 0.43-1.511 0.625-2.3 0.668-0.399 0-0.813-0.093-1.208-0.054-0.398 0.031-0.773 0.168-1.144 0.332-0.73 0.351-1.484 0.578-2.242 0.773-0.77 0.156-1.473 0.234-2.297 0.406l-0.055-0.082c0.488-0.734 1.332-1.121 2.09-1.355 0.781-0.196 1.574-0.317 2.395-0.281 0.41 0.007 0.812-0.008 1.195-0.114 0.387-0.097 0.754-0.324 1.137-0.445 0.781-0.199 1.593-0.203 2.418 0.055l0.011 0.097" style="fill: rgb(201, 144, 113);"/></g>
        <g id="__id179_sifns3reqr"><path d="m14.973 45.543c-0.594-1.934-1.278-3.828-2.094-5.652-0.84-1.797-1.824-3.563-3.3712-4.711-0.7734-0.571-1.6445-1.055-2.5156-1.61-0.8672-0.554-1.6875-1.179-2.4492-1.863-1.5508-1.34-2.8985-2.859-4.3203-4.293l0.30074-0.168c0.75776 3.356 1.7305 6.727 3.5352 9.621 0.9023 1.438 1.9648 2.77 3.2617 3.821 1.2695 1.074 2.8167 1.773 4.3637 2.582 1.543 0.816 3.004 1.628 4.609 2.125 0.801 0.265 1.633 0.484 2.469 0.73 0.836 0.258 1.664 0.535 2.48 0.84 3.278 1.203 6.379 2.867 9.18 4.902l-0.055 0.086c-3.008-1.707-6.16-3.094-9.41-4.16-1.629-0.535-3.281-0.891-4.98-1.398-1.719-0.493-3.293-1.383-4.782-2.211-1.488-0.829-3.1091-1.602-4.4645-2.801-1.3438-1.192-2.4258-2.629-3.2461-4.184-1.6641-3.117-2.3985-6.543-3.3086-9.867l-0.1758-0.644 0.47656 0.472c1.4296 1.426 2.9414 2.766 4.5234 3.988 0.7969 0.602 1.6133 1.172 2.4492 1.696 0.836 0.519 1.7617 0.972 2.5938 1.644 1.676 1.352 2.73 3.246 3.437 5.153 0.727 1.906 1.266 3.875 1.586 5.879l-0.093 0.023" style="fill: rgb(201, 144, 113);"/></g>
        <g id="__id180_sifns3reqr"><path d="m16.875 46.242c-1.23-0.187-2.301 0.469-3.152 1.254-0.86 0.801-1.719 1.777-2.75 2.508-1.0238 0.746-2.1644 1.308-3.3207 1.785-1.1601 0.473-2.3242 0.899-3.5195 1.262l0.0078-0.348c1.4727 0.375 2.9688 0.664 4.4258 0.711 0.7266 0.008 1.4496-0.035 2.1326-0.215 0.688-0.176 1.344-0.472 1.992-0.801 1.293-0.683 2.504-1.531 3.676-2.484 1.168-0.949 2.324-1.926 3.422-2.984l0.078 0.062c-0.836 1.293-1.855 2.457-2.957 3.535-1.09 1.075-2.316 2.098-3.726 2.817-1.395 0.754-3.094 1.109-4.6723 0.929-1.5898-0.156-3.039-0.73-4.4765-1.222l-0.6055-0.207 0.6133-0.141c1.1914-0.273 2.3554-0.699 3.414-1.316 1.0664-0.602 2.0313-1.348 2.977-2.09 0.476-0.375 0.941-0.754 1.394-1.152 0.445-0.407 0.914-0.829 1.422-1.223 0.988-0.777 2.445-1.32 3.656-0.774l-0.031 0.094" style="fill: rgb(201, 144, 113);"/></g>
        <g id="__id181_sifns3reqr"><path d="m13.496 44.867c-0.637-0.664-0.988-1.515-1.332-2.308-0.332-0.829-0.644-1.512-1.144-2.168-0.473-0.672-1.0552-1.332-1.7231-1.887-0.6719-0.555-1.4141-1.024-2.1289-1.559-0.7266-0.523-1.3985-1.121-1.9883-1.793-0.5977-0.66-1.1602-1.355-1.6485-2.093-0.9648-1.493-1.7343-3.079-2.3281-4.747l0.0899-0.05c1.1406 1.359 2.1172 2.8 3.1172 4.195 0.9648 1.426 1.9843 2.785 3.121 4.082 0.5782 0.641 1.2422 1.207 1.961 1.707s1.5038 0.942 2.1638 1.609c0.668 0.661 1.032 1.625 1.239 2.45 0.246 0.843 0.378 1.695 0.687 2.507l-0.086 0.055" style="fill: rgb(201, 144, 113);"/></g>
        <g id="__id182_sifns3reqr"><path d="m21.047 47.363c0.164-1.359 0.594-2.679 0.191-3.859-0.328-1.215-1.078-2.332-1.64-3.559-0.594-1.211-1.168-2.437-1.91-3.566-0.731-1.133-1.583-2.184-2.45-3.215l0.617-0.258c0.262 1.156 0.489 2.321 0.7 3.485 0.218 1.164 0.429 2.328 0.582 3.5 0.175 1.168 0.277 2.351 0.414 3.527 0.051 0.574 0.121 1.144 0.285 1.687 0.152 0.543 0.383 1.075 0.824 1.457l-0.055 0.086c-0.566-0.265-0.953-0.82-1.222-1.367-0.266-0.562-0.442-1.152-0.582-1.746-0.231-1.16-0.5-2.316-0.696-3.48-0.214-1.164-0.371-2.336-0.519-3.512-0.16-1.172-0.305-2.348-0.41-3.527l-0.133-1.457 0.75 1.199c0.723 1.152 1.406 2.324 2.148 3.457 0.731 1.14 1.563 2.215 2.321 3.347 0.742 1.122 1.465 2.329 1.754 3.766 0.156 0.699 0.093 1.496-0.121 2.152-0.2 0.668-0.481 1.286-0.75 1.911l-0.098-0.028" style="fill: rgb(201, 144, 113);"/></g>
        <g id="__id183_sifns3reqr"><path d="m19.531 46.871c-0.117-1.176-0.34-2.215-0.558-3.297-0.09-0.527-0.172-1.136-0.34-1.683-0.168-0.555-0.43-1.071-0.715-1.582-0.594-1.008-1.055-2.067-1.465-3.145-0.367-1.094-0.664-2.215-0.773-3.41l0.093-0.035c0.711 0.965 1.227 2.004 1.676 3.07 0.403 1.078 0.762 2.18 0.981 3.328 0.121 0.571 0.269 1.133 0.508 1.66 0.226 0.535 0.601 0.989 0.835 1.567 0.403 1.133 0.434 2.457-0.144 3.551l-0.098-0.024" style="fill: rgb(201, 144, 113);"/></g>
        <g id="__id184_sifns3reqr"><path d="m41.184 74.664c-1.071-2.437-2.77-4.445-4.571-6.375-1.773-1.957-3.523-3.941-5.707-5.309-2.168-1.39-4.656-2.265-7.226-2.765-2.575-0.5-5.235-0.574-7.864-0.406l0.118-0.254c2.187 3 4.847 5.648 7.8 7.843 1.481 1.094 3.039 2.071 4.68 2.883 1.633 0.824 3.367 1.446 5.121 2.02 1.75 0.57 3.551 1.117 5.317 1.601 1.777 0.461 3.535 0.743 5.328 0.399 0.902-0.145 1.804-0.367 2.738-0.528 0.934-0.152 1.871-0.257 2.812-0.308 1.883-0.117 3.766 0.039 5.606 0.363l-0.016 0.102c-1.851-0.172-3.711-0.118-5.543 0.09-1.847 0.187-3.582 0.707-5.445 1.109-1.879 0.43-3.918 0.25-5.73-0.246-1.829-0.488-3.598-1.008-5.395-1.578-3.57-1.157-7.047-2.879-9.957-5.282-2.945-2.371-5.375-5.269-7.574-8.281l-0.176-0.238 0.297-0.016c2.648-0.144 5.312-0.156 7.973 0.172 2.648 0.332 5.308 1.106 7.613 2.574 2.316 1.481 4.07 3.575 5.762 5.594 0.839 1.024 1.687 2.063 2.421 3.184 0.715 1.133 1.313 2.343 1.711 3.617l-0.093 0.035" style="fill: rgb(201, 144, 113);"/></g>
        <g id="__id185_sifns3reqr"><path d="m22.688 85.977c1.859-1.2 3.753-2.25 5.699-3.231 0.984-0.461 2-0.883 2.953-1.414 0.961-0.523 1.805-1.219 2.828-1.738 1.043-0.547 2.227-0.621 3.246-0.817 1.051-0.195 2.078-0.476 3.07-0.82 2.004-0.656 3.836-1.738 5.368-3.32l0.082 0.058c-1.024 1.993-2.973 3.481-5.09 4.266-1.063 0.398-2.18 0.613-3.289 0.746-1.133 0.148-2.188 0.074-3.18 0.395-2.023 0.691-3.75 2.195-5.59 3.375-1.887 1.125-3.918 2.019-6.055 2.593l-0.042-0.093" style="fill: rgb(201, 144, 113);"/></g>
        <g clip-path="url(#__id168_sifns3reqr)" id="__id186_sifns3reqr">
            <path d="m33 77.609c1.434-0.531 2.941-0.871 4.504-0.898 0.777 0.016 1.59 0.113 2.336 0.551 0.367 0.218 0.719 0.574 0.875 1.043 0.152 0.465 0.09 0.937-0.008 1.343-1.031 3.079-3.289 5.508-5.957 7.145-2.676 1.648-5.789 2.484-8.863 2.602-3.09 0.136-6.129-0.278-9.137-0.829l-0.629-0.113 0.606-0.254c1.48-0.621 2.296-2.101 3.289-3.429 0.504-0.668 1.082-1.344 1.859-1.821 0.785-0.511 1.668-0.652 2.406-0.89 1.504-0.465 2.938-1.27 4.344-2.121 1.418-0.84 2.828-1.739 4.375-2.329zm0.035 0.094c-1.543 0.582-2.871 1.574-4.183 2.57-1.317 0.981-2.668 2.02-4.301 2.602-0.817 0.289-1.594 0.437-2.211 0.832-0.641 0.379-1.18 0.953-1.719 1.555-0.531 0.605-1.043 1.269-1.633 1.875-0.59 0.609-1.308 1.14-2.133 1.425l-0.023-0.371c2.941 0.723 6.016 0.961 9.004 0.598 2.976-0.375 5.894-1.238 8.367-2.863 2.473-1.578 4.535-3.895 5.68-6.508 0.222-0.645 0.152-1.223-0.403-1.633-0.535-0.406-1.269-0.605-2-0.687-1.48-0.153-3.023 0.093-4.445 0.605" style="fill: rgb(201, 144, 113);"/>
        </g>
        <g id="__id187_sifns3reqr"><path d="m40.527 74.379c-1.898-1.399-3.613-2.953-5.332-4.488-0.84-0.797-1.672-1.614-2.621-2.282-0.945-0.671-1.984-1.195-3.066-1.605-2.16-0.813-4.391-1.504-6.543-2.422-2.074-0.898-4.418-1.687-6.199-3.277l0.054-0.086c2.106 1.039 4.321 1.523 6.547 2.375 2.133 0.914 4.321 1.734 6.375 2.914 1.028 0.578 2.016 1.219 3.012 1.832s2.023 1.207 2.973 1.91c1.859 1.449 3.461 3.176 4.871 5.059l-0.071 0.07" style="fill: rgb(201, 144, 113);"/></g>
        <g id="__id188_sifns3reqr"><path d="m46.5 51.199c2.055-0.816 3.809-2.207 5.172-3.883 1.351-1.691 2.402-3.628 3.008-5.699 0.293-1.031 0.519-2.07 0.468-3.121-0.046-1.055-0.261-2.113-0.57-3.156-0.64-2.09-1.488-4.145-2.609-6.039l0.285 0.008c-2.063 2.984-4.016 6.144-4.938 9.625-0.461 1.734-0.652 3.5-0.511 5.285 0.105 1.785 0.414 3.59 0.5 5.457 0.05 0.926 0.015 1.902-0.141 2.793l-0.394 2.722c-0.215 1.762-0.243 3.559-0.02 5.332 0.438 3.547 1.738 7.004 3.812 10.004l-0.078 0.063c-2.386-2.778-4.023-6.262-4.597-9.942-0.313-1.836-0.364-3.722-0.153-5.582 0.172-1.812 0.633-3.593 0.528-5.355-0.039-1.781-0.305-3.594-0.375-5.449-0.09-1.86 0.183-3.766 0.769-5.528 1.196-3.543 3.34-6.562 5.317-9.617l0.144-0.226 0.145 0.234c1.148 1.906 2.183 3.891 2.968 5.996 0.391 1.055 0.711 2.168 0.766 3.336 0.063 1.164-0.117 2.336-0.476 3.418-0.711 2.156-1.805 4.203-3.344 5.875-1.52 1.672-3.473 2.996-5.645 3.547l-0.031-0.098" style="fill: rgb(201, 144, 113);"/></g>
        <g id="__id189_sifns3reqr"><path d="m46.508 57.984c0.183-0.75 0.699-1.355 1.242-1.882 0.555-0.524 1.191-0.957 1.871-1.332 1.363-0.766 2.949-1.04 4.473-1.094 1.535-0.051 3.035 0.097 4.531 0.304 1.496 0.208 2.973 0.536 4.41 0.981l0.789 0.242-0.726 0.305c-1.426 0.597-2.836 1.23-4.211 1.933-1.391 0.684-2.645 1.579-4.133 2.204-1.524 0.632-3.211 0.585-4.727 0.382-0.742-0.097-1.547-0.089-2.324-0.293-0.379-0.109-0.789-0.25-1.051-0.586-0.257-0.343-0.238-0.789-0.144-1.164zm0.097 0.024c-0.078 0.363-0.085 0.777 0.157 1.054 0.25 0.262 0.621 0.376 0.992 0.411 0.746 0.074 1.496-0.051 2.297-0.086 1.551-0.075 3.027-0.071 4.433-0.52 0.715-0.195 1.422-0.484 2.137-0.781 0.715-0.293 1.43-0.594 2.125-0.93 1.391-0.668 2.75-1.406 4.094-2.176l0.058 0.547c-1.46-0.254-2.921-0.453-4.386-0.601-1.461-0.133-2.942-0.203-4.391-0.192-1.449 0.02-2.871 0.192-4.242 0.625-0.688 0.231-1.356 0.543-1.957 0.953-0.594 0.418-1.121 0.985-1.317 1.696" style="fill: rgb(201, 144, 113);"/></g>
        <g id="__id190_sifns3reqr"><path d="m46.602 52.484c-0.422-0.964-1.016-1.808-1.649-2.609-0.633-0.805-1.344-1.543-2.098-2.211-0.757-0.656-1.566-1.336-2.41-1.957-0.84-0.633-1.742-1.176-2.64-1.734l0.273-0.172c0.25 1.289 0.66 2.535 1.043 3.777 0.395 1.238 0.809 2.473 1.41 3.551 0.586 1.105 1.407 1.922 2.512 2.644 1.055 0.743 2.242 1.454 3.09 2.512l-0.071 0.07c-1.062-0.773-2.281-1.23-3.449-1.878-0.582-0.325-1.187-0.661-1.726-1.153-0.524-0.488-0.965-1.062-1.289-1.683-0.66-1.239-0.996-2.551-1.301-3.84-0.301-1.301-0.43-2.633-0.57-3.949l-0.039-0.403 0.316 0.231c0.844 0.617 1.75 1.152 2.687 1.636 0.934 0.5 1.891 0.981 2.743 1.672 0.843 0.703 1.535 1.551 2.121 2.461 0.57 0.91 1.027 1.934 1.144 3.008l-0.097 0.027" style="fill: rgb(201, 144, 113);"/></g>
        <g id="__id191_sifns3reqr"><path d="m61.473 55.379c-0.516 0.449-1.211 0.613-1.809 0.746-0.617 0.133-1.242 0.238-1.875 0.258-0.633 0.008-1.277-0.063-1.91-0.024-0.629 0.039-1.246 0.18-1.863 0.344-1.227 0.371-2.496 0.485-3.598 0.84-1.137 0.309-2.266 0.828-3.508 1.215l-0.055-0.086c0.911-0.918 1.965-1.703 3.243-2.149 0.644-0.214 1.312-0.285 1.949-0.332 0.641-0.054 1.265-0.05 1.906-0.035 0.633 0.012 1.266-0.004 1.887-0.117s1.226-0.332 1.844-0.48c0.617-0.137 1.246-0.18 1.878-0.204 0.645-0.027 1.235 0.036 1.864-0.066l0.047 0.09" style="fill: rgb(201, 144, 113);"/></g>
    </g>
</svg>