<?xml version="1.0" encoding="iso-8859-1"?>
<svg xmlns="http://www.w3.org/2000/svg" xmlns:xlink="http://www.w3.org/1999/xlink" preserveAspectRatio="xMidYMid meet" version="1.0" viewBox="-6.4 -1.4 303.1 276.8" zoomAndPan="magnify" style="fill: rgb(0, 0, 0);" original_string_length="2108"><g data-name="Layer 2"><g data-name="Layer 1" id="__id110_sifns3reqr"><path d="M282.82,23.15C267.48,3.54,239.34-1.37,215.9.31c-28.22,2-55,13.31-79.48,26.84A370,370,0,0,0,68.91,75.1c-20,17.86-39.53,38-53.75,60.88-13,20.84-21.54,47.41-9.11,70.54,7.63,14.19,20.71,23.62,35.37,29.39.92,3.4,2,6.75,3.22,10,3.8,10,9.84,19.78,20,24.19,12.19,5.3,25.89,1.25,37.7-3.1a299.34,299.34,0,0,0,33.53-14.75,315.06,315.06,0,0,0,109.47-93.94,306.41,306.41,0,0,0,35.62-63.19c.42-1,.84-2,1.25-3-.05,1.78-.14,3.56-.28,5.33-2.31,28-18.81,50.24-36.26,71.06a497.37,497.37,0,0,1-56.12,56.87q-15.32,13.22-31.6,25.25c-1.56,1.16-.07,3.81,1.54,2.65a478.53,478.53,0,0,0,66.08-57.19q14.77-15.37,28.18-32c8.92-11.08,17.58-22.61,23.5-35.62a95.78,95.78,0,0,0,8.15-44.7C292.54,63.71,296.72,40.92,282.82,23.15Zm-.57,5c7.61,11.82,7.46,26.25,4.42,39.51-.6,2.63-1.29,5.24-2,7.85a111.68,111.68,0,0,0-6.79-26.34c-8-20.25-23.56-40.55-46-45.11a48.23,48.23,0,0,0-5.16-.75,91.18,91.18,0,0,1,26.91,4.42C264.82,11.43,275.73,18,282.25,28.13ZM30.13,227.64c-9.75-6.08-18.25-14.54-23-25.09-5.69-12.5-5.29-26.57-1.33-39.5C13.26,138.53,31,118,48.22,99.66a367.73,367.73,0,0,1,58.37-50.14c21.63-15,45-28.37,69.87-37.17a161,161,0,0,1,33.7-8.18,133.7,133.7,0,0,0-19.7,5.41,285,285,0,0,0-34.41,14.34,243.59,243.59,0,0,0-62.8,44.2c-36.94,36.42-59.91,87.62-56.3,140a148.91,148.91,0,0,0,3.75,25A78,78,0,0,1,30.13,227.64Zm228.36-95.57A312.81,312.81,0,0,1,165,230.5a300.05,300.05,0,0,1-59.48,31.07c-12.36,4.76-27.8,10.83-40.59,4.22-10.46-5.4-15.62-17.13-18.8-27.85,0-.12-.06-.24-.1-.36a110.69,110.69,0,0,0,20,4.66c14.08,2,28.33,1.8,42.5,1.61a1.08,1.08,0,0,0,0-2.16c-21.06.22-43.3.39-63.25-6.79-12.76-47,.29-98.78,28.15-138C101.77,57,144.82,29.15,190.64,13.26c13.22-4.59,27.65-8.84,41.67-5.54,11,2.58,20.39,9.41,27.7,17.85,13.58,15.69,20.95,37,22.08,57.91C276.2,100.49,267.56,116.92,258.49,132.07Z" style="fill: rgb(187, 133, 104);"/></g></g></svg>