<?xml version="1.0" encoding="iso-8859-1"?>
<svg xmlns="http://www.w3.org/2000/svg" xmlns:xlink="http://www.w3.org/1999/xlink" preserveAspectRatio="xMidYMid meet" version="1.0" viewBox="39.5 193.7 440.7 86.1" zoomAndPan="magnify" style="fill: rgb(0, 0, 0);" original_string_length="2954"><g id="__id116_sifns3reqr" style="fill: rgb(201, 144, 113);"><path d="M472.5,221.4c-1.8-1-1.8-3-2.7-4.4c-1.2-1.7-2.9-2.8-4.9-3.4c-1.8-0.6-3.3,0.7-4.9,1 c-4.2,0.7-7.9,3.7-12.3,2.8c-5-1-9.9,2.3-14.9,0.5c-0.6-0.2-1.5,0.3-2.1,0.6c-4.2,1.9-9,0.8-13.3,2.6c-5.7-1.4-11.2,1.6-16.9,1.1 c-3.4-0.3-6.8,1.1-10.3,1.3c-9.7,0.8-19.4,2.1-29.1,2.6c-2,0.1-3.9,0.8-5.9,1.3c-1.2,0.3-2.4,0.8-3.6,0.9c-4.4,0.6-9.1-0.6-13,2.4 c-0.1,0.1-0.5-0.1-0.7,0c-5.8,1.4-12,1.1-17.6,3.4c-0.9,0.4-2,0.3-3,0.4c-8.7,1.1-17.6,1.7-26.1,4c-1,0.3-2,0.6-3,0.5 c-4.6-0.4-8.9,1.2-13.3,2c-2.2,0.4-4.5,0.9-6.7,1c-3.7,0.2-7.6-0.4-10.8,2.4c-0.6,0.5-1.9,0.5-2.9,0.4c-5.1-0.2-10,0.8-14.8,2.2 c-1.7,0.5-3.4,1.2-5.1,1.2c-4.5,0-8.8,1-13.3,1.9c-6.9,1.4-13.8,2.9-20.8,3.7c-8.5,1-16.5,3.9-25,4.8c-5.3,0.6-10.7,2-16,3.1 c-9.1,1.9-18.2,4.3-27.3,5.9c-8.2,1.4-15.9,4.8-24.1,6.3c-2.9,0.5-5.7,2-8.4,3.2c-0.6,0.2-1.1,1.1-0.6,1.9c0.3,0.4,0.8,0.8,1.1,0.8 c4-0.5,8-0.9,12-1.7c9.4-1.7,18.7-4,28.2-5.3c9.4-1.3,18.7-3.1,28.1-4.8c3.7-0.7,7.5-0.8,11.1-1.9c8-2.3,16.5-1.8,24.4-4.6 c0.4-0.2,1-0.1,1.5,0.1c3.3,1,6.4-0.2,9.6-0.9c3.9-0.9,7.9-1.5,11.9-2.2c4.7-0.8,9.5-1.2,14.2-2.1c6.1-1.2,12.4-2.3,18.5-2.7 c8.4-0.5,16.3-2.6,24.5-3.7c3.5-0.5,6.7-2.4,10.3-1.6c4.1-2.1,9-0.1,13.1-2.7c0.7-0.4,2-0.1,2.9,0c1,0.1,1.8,0.3,2.9-0.1 c6.7-2.2,13.7-3.1,20.8-3.2c2,0,4-0.3,6-0.6c5.9-0.8,11.6-3,17.7-1.5c0.4,0.1,1-0.1,1.4-0.3c4.9-2,10.2-3.2,15.3-3.5 c5.4-0.4,10.8-2.8,16.4-0.8c0.4,0.1,1-0.1,1.4-0.3c7.5-2.2,15.3-2.5,23.1-2.7c1.3,0,2.7,0.2,3.7-0.3c3.2-1.5,6.5-0.8,10.1-1.1 c1.9,1.1,4.1,0.2,6.4-0.1c9.2-1,18.2-2.6,27.3-4c3.8-0.6,6.6-2.1,9.5-4.1C472.6,222.8,473.2,221.8,472.5,221.4z" style="fill: inherit;"/><path d="M479.8,196.9c-0.4-1.7-2.6-3.2-4.7-3.1c-0.3,0-0.5-0.1-0.8,0c-4.8,1.8-9.9,1.6-14.9,2.1 c-8.3,0.8-16.1,4-24.6,3.5c-3.9-0.2-8.1,0.9-12,1.9c-4.1,1-8.3,0.2-12.6,1.3c-6.8,1.7-13.9,2-20.9,2.9c-2.7,0.4-5.3,1.4-8.1,1.6 c-7,0.4-14.1,1-21,2.3c-7.6,1.5-15.3,2.2-22.9,3.1c-7,0.8-13.9,2.6-21,2.1c-9.9,3.4-20.6,1.2-30.6,4.3c-7.6-0.3-15,1.4-22.5,2.5 c-8.7,1.3-17.5,2.6-26.2,3.5c-10.8,1.1-21.5,3.1-32.3,4.1c-4.3,0.4-8.5,1.1-12.7,1.8c-6.2,1.1-12.3,2.7-18.6,3.6 c-15,2-29.9,5-44.8,7.8c-14.1,2.6-28.2,5.8-42.3,8.6c-8.2,1.6-16.5,2.9-24.5,5.3c-7.6,0.6-14.6,3.1-21.5,6.1 c-0.6,0.3-0.8,0.7-0.5,1.2c0.2,0.3,0.8,0.7,1.1,0.6c7-1.8,14-3.6,21-5.4c6.7-1.4,13.3-2.9,20-4.1c15.4-2.8,30.9-5.1,46.3-8.2 c15.8-3.2,31.8-5.2,47.8-8c11.4-2,22.9-3.6,34.4-5c14-1.7,28.1-3.2,42.2-4.6c8.5-0.9,17.1-1.3,25.6-2.4c9.7-1.3,19.5-1.3,29.1-3.6 c0.5-0.1,1-0.1,1.5-0.1c5.5-0.1,11.1,0.5,16.5-1.4c1.1-0.4,2.5,0,3.8-0.1c2-0.1,4.1-0.1,6-0.5c8.4-1.9,16.9-2.8,25.4-3.5 c7.3-0.6,14.6-1.2,21.8-2.5c6.9-1.3,14-2.2,21.1-2.3c7.1,0,13.5-3.9,20.6-2.6c0.4,0.1,1-0.3,1.5-0.4c7.9-1.7,15.8-2.8,23.8-3.2 c8.6-0.4,17-2.3,25.5-3.2c0.5-0.1,1-0.2,1.5-0.3C478.5,201.6,480.2,198.8,479.8,196.9z" style="fill: inherit;"/></g></svg>